<?xml version="1.0" encoding="UTF-8" standalone="no"?>
<svg
   viewBox="-1.2 -2.4 20 13.999999"
   version="1.1"
   x="0px"
   y="0px"
   id="svg2"
   sodipodi:docname="noun-eye-4763816.svg"
   width="20"
   height="14"
   inkscape:version="1.4.2 (ebf0e940, 2025-05-08)"
   xmlns:inkscape="http://www.inkscape.org/namespaces/inkscape"
   xmlns:sodipodi="http://sodipodi.sourceforge.net/DTD/sodipodi-0.dtd"
   xmlns="http://www.w3.org/2000/svg"
   xmlns:svg="http://www.w3.org/2000/svg"
   xmlns:rdf="http://www.w3.org/1999/02/22-rdf-syntax-ns#"
   xmlns:cc="http://creativecommons.org/ns#"
   xmlns:dc="http://purl.org/dc/elements/1.1/">
  <defs
     id="defs2" />
  <sodipodi:namedview
     id="namedview2"
     pagecolor="#ffffff"
     bordercolor="#000000"
     borderopacity="0.25"
     inkscape:showpageshadow="2"
     inkscape:pageopacity="0.0"
     inkscape:pagecheckerboard="0"
     inkscape:deskcolor="#d1d1d1"
     showgrid="false"
     inkscape:zoom="20.52469"
     inkscape:cx="9.9879704"
     inkscape:cy="8.7942861"
     inkscape:window-width="1440"
     inkscape:window-height="847"
     inkscape:window-x="0"
     inkscape:window-y="25"
     inkscape:window-maximized="1"
     inkscape:current-layer="svg2" />
  <title
     id="title1">Ico/Actions/Show</title>
  <g
     stroke="none"
     stroke-width="1"
     fill="none"
     fill-rule="evenodd"
     id="g1"
     transform="translate(-3.2,-7.4)">
    <path
       d="m 12,5 c 3.689669,0 6.974025,2.1895704 9.830166,6.442483 0.226445,0.337187 0.226445,0.777847 0,1.115034 C 18.974025,16.81043 15.689669,19 12,19 8.3103308,19 5.0259752,16.81043 2.1698343,12.557517 1.9433886,12.22033 1.9433886,11.77967 2.1698343,11.442483 5.0259752,7.1895704 8.3103308,5 12,5 Z m 0,2 C 9.2402975,7 6.6765926,8.5976335 4.2899008,11.897541 v 0 L 4.216,12 4.289901,12.102459 c 2.3097017,3.193459 4.7851806,4.792697 7.443642,4.89255 v 0 L 12,17 c 2.759703,0 5.323407,-1.597634 7.710099,-4.897541 v 0 L 19.783,12 19.710099,11.897541 C 17.400397,8.7040821 14.924919,7.1048445 12.266457,7.0049909 v 0 z m 0,1 c 2.209139,0 4,1.790861 4,4 0,2.209139 -1.790861,4 -4,4 C 9.790861,16 8,14.209139 8,12 8,9.790861 9.790861,8 12,8 Z m 0,2 c -1.104569,0 -2,0.895431 -2,2 0,1.10457 0.895431,2 2,2 1.10457,0 2,-0.89543 2,-2 0,-1.104569 -0.89543,-2 -2,-2 z"
       fill="#000000"
       id="path1" />
  </g>
  <metadata
     id="metadata2">
    <rdf:RDF>
      <cc:Work
         rdf:about="">
        <dc:title>Ico/Actions/Show</dc:title>
      </cc:Work>
    </rdf:RDF>
  </metadata>
</svg>
